<?xml version="1.0" encoding="utf-8"?>
<!-- Generator: Adobe Illustrator 22.0.1, SVG Export Plug-In . SVG Version: 6.00 Build 0)  -->
<svg version="1.1" id="Layer_1" xmlns="http://www.w3.org/2000/svg" xmlns:xlink="http://www.w3.org/1999/xlink" x="0px" y="0px"
	 viewBox="0 0 116.8 116.3" style="enable-background:new 0 0 116.8 116.3;" xml:space="preserve">
<style type="text/css">
	.st0{fill:#13B5EA;}
	.st1{fill:#FFFFFF;}
	.st2{fill:url(#SVGID_1_);}
</style>
<path class="st0" d="M104.5,87l-0.3-1.5l0.3-0.5l0.5,1.3L104.5,87z M100.5,84.8l1.2-2l-1.9-1.1L98.5,84L98,83.6l1.7-2.9l5.2,3.1
	l-1.7,2.8l-0.6-0.3l1.3-2.1l-1.6-1l-1.2,2L100.5,84.8z"/>
<path class="st0" d="M94.1,89.2c0.1-0.3,0.3-0.9,0.8-1.4c1-1.3,2.7-1.7,4.2-0.5c1.5,1.2,1.7,3,0.6,4.4c-0.5,0.6-0.9,0.9-1.1,1
	l-0.4-0.5c0.3-0.1,0.6-0.4,0.9-0.8c0.9-1.1,0.7-2.4-0.5-3.4c-1.2-0.9-2.4-0.8-3.3,0.3c-0.3,0.4-0.5,0.8-0.6,1.2L94.1,89.2z"/>
<path class="st0" d="M90.9,92.1c1.2-1.1,2.8-1,4.1,0.3c1.3,1.4,1.3,3.1,0.2,4.2c-1.2,1.1-2.8,1-4.1-0.3
	C89.6,94.8,89.8,93.1,90.9,92.1L90.9,92.1z M91.3,92.5c-0.9,0.9-0.6,2.2,0.3,3.1c0.8,0.9,2.2,1.3,3.1,0.4c0.9-0.9,0.6-2.2-0.3-3.2
	C93.5,92,92.2,91.7,91.3,92.5L91.3,92.5z"/>
<path class="st0" d="M90.8,100.2l-0.6,0.5L87,96.4l-2.1,1.5l-0.4-0.5l2.7-2L90.8,100.2z"/>
<path class="st0" d="M81.6,102.4l2-1.2l-1.1-1.9l-2.3,1.3l-0.3-0.6l3-1.7l3,5.2l-2.8,1.6l-0.3-0.6l2.2-1.2l-0.9-1.7l-2,1.2
	L81.6,102.4z"/>
<path class="st0" d="M77.1,107.9c-0.4,0.2-1,0.4-1.5,0.6c-1.1,0.4-1.9,0.4-2.6,0.1c-0.7-0.3-1.2-0.9-1.5-1.8
	c-0.3-0.9-0.3-1.8,0.1-2.5c0.4-0.7,1.2-1.3,2.3-1.7c0.5-0.2,1-0.3,1.4-0.4L77.1,107.9z M74.7,103c-0.2,0-0.5,0.1-0.8,0.2
	c-1.6,0.5-2.1,1.7-1.6,3.2c0.4,1.4,1.5,2,3,1.4c0.4-0.1,0.7-0.3,0.8-0.4L74.7,103z"/>
<path class="st0" d="M68.7,110.3l-0.6-3.5c-0.2-1.3-0.9-1.8-1.7-1.7c-0.9,0.2-1.3,0.8-1.1,2.1l0.6,3.5l-0.8,0.1l-0.6-3.5
	c-0.3-1.8,0.5-2.7,1.8-3c1.2-0.2,2.3,0.3,2.6,2.2l0.6,3.5L68.7,110.3z"/>
<path class="st0" d="M53.4,107.7c0,0.8,0,1.9-0.1,2.6l0,0c0.3-0.7,0.5-1.4,0.9-2.2l1.2-2.9l0.6,0l0.8,2.9c0.2,0.9,0.4,1.7,0.6,2.4
	l0,0c0.1-0.7,0.2-1.7,0.3-2.7l0.3-2.6l0.7,0l-0.8,6l-1-0.1l-0.9-3c-0.2-0.8-0.4-1.4-0.5-2.1l0,0c-0.2,0.6-0.4,1.2-0.8,2l-1.2,2.8
	l-1-0.1l0-6l0.8,0L53.4,107.7z"/>
<path class="st0" d="M48,104c1.6,0.4,2.4,1.8,2,3.6c-0.4,1.9-1.9,2.8-3.4,2.5c-1.6-0.4-2.4-1.8-2-3.6C45.1,104.5,46.5,103.7,48,104
	L48,104z M47.9,104.6c-1.2-0.3-2.1,0.7-2.4,2c-0.3,1.2,0.1,2.5,1.3,2.8c1.3,0.3,2.2-0.7,2.4-2C49.5,106.2,49.1,104.9,47.9,104.6
	L47.9,104.6z"/>
<path class="st0" d="M43.3,102.9l-2.2,5.6l-0.8-0.3l-0.7-3.5c-0.1-0.8-0.3-1.5-0.3-2.2l0,0c-0.2,0.8-0.5,1.5-0.8,2.3l-0.9,2.4
	l-0.7-0.3l2.2-5.6l0.7,0.3l0.7,3.5c0.1,0.8,0.3,1.6,0.3,2.3l0,0c0.2-0.7,0.5-1.4,0.9-2.3l0.9-2.4L43.3,102.9z"/>
<path class="st0" d="M33.8,105.3c-0.5-0.2-1-0.4-1.5-0.7c-1-0.6-1.5-1.2-1.7-1.9c-0.2-0.7-0.1-1.5,0.3-2.3c0.5-0.9,1.2-1.4,1.9-1.6
	c0.8-0.2,1.7,0,2.7,0.6c0.5,0.3,0.9,0.5,1.2,0.8L33.8,105.3z M35.8,100.2c-0.2-0.1-0.4-0.3-0.7-0.4c-1.4-0.8-2.7-0.5-3.5,0.9
	c-0.7,1.2-0.5,2.4,0.9,3.2c0.3,0.2,0.6,0.3,0.8,0.4L35.8,100.2z"/>
<path class="st0" d="M26.6,96.7l1.8,1.4l1.3-1.7l-2.1-1.6l0.4-0.5l2.7,2.1l-3.7,4.8l-2.6-2l0.4-0.5l2,1.5l1.2-1.5l-1.8-1.4
	L26.6,96.7z"/>
<path class="st0" d="M22.4,91.8c0.3,0.4,0.3,1-0.1,1.3c-0.4,0.4-1,0.3-1.3-0.1c-0.4-0.4-0.3-1,0-1.3C21.5,91.4,22.1,91.4,22.4,91.8
	L22.4,91.8z"/>
<path class="st0" d="M17.7,82.2c0.3,0.2,0.7,0.6,1.1,1.2c0.9,1.4,0.7,3.1-0.9,4.2c-1.6,1-3.4,0.7-4.4-0.9c-0.4-0.6-0.5-1.1-0.6-1.3
	l0.6-0.2c0,0.3,0.2,0.7,0.5,1.1c0.8,1.2,2,1.5,3.4,0.6c1.2-0.8,1.6-2,0.8-3.3c-0.3-0.4-0.6-0.8-0.9-0.9L17.7,82.2z"/>
<path class="st0" d="M16,78.3c0.7,1.5,0,3-1.6,3.8c-1.7,0.8-3.4,0.3-4.1-1.2c-0.7-1.5,0-3,1.6-3.8C13.8,76.2,15.3,76.9,16,78.3
	L16,78.3z M15.4,78.5c-0.5-1.1-1.8-1.3-3.1-0.7c-1.1,0.5-2,1.6-1.4,2.8c0.6,1.2,1.9,1.2,3.1,0.7C15.2,80.8,15.9,79.6,15.4,78.5
	L15.4,78.5z"/>
<path class="st0" d="M8.3,75.6L8,74.8l5.1-1.6l-0.8-2.5l0.6-0.2l1,3.2L8.3,75.6z"/>
<path class="st0" d="M9.2,66.1l0.4,2.3l2.1-0.4l-0.5-2.6l0.6-0.1l0.6,3.3l-5.9,1.1L6,66.6l0.6-0.1l0.5,2.4L9,68.5l-0.4-2.3L9.2,66.1
	z"/>
<path class="st0" d="M11.1,58.6c0.2,0.3,0.4,1,0.4,1.8c0,0.9-0.1,1.7-0.7,2.3c-0.5,0.5-1.3,0.9-2.2,1c-1.8,0.1-3.2-1.1-3.3-3.1
	c0-0.7,0.1-1.3,0.2-1.5l0.6,0.2C6.1,59.6,6,60,6.1,60.6c0.1,1.5,1,2.4,2.6,2.3c1.5-0.1,2.4-1,2.3-2.5c0-0.5-0.1-0.9-0.2-1l-1.8,0.1
	L9,60.7l-0.6,0l-0.1-2L11.1,58.6z"/>
<path class="st0" d="M5.5,55.2l6,0.3l0,0.8l-6-0.3L5.5,55.2z"/>
<path class="st0" d="M12.2,50.7c-0.3,1.6-1.6,2.5-3.4,2.2c-1.9-0.3-2.9-1.7-2.7-3.3c0.3-1.6,1.7-2.5,3.4-2.2
	C11.6,47.8,12.4,49.2,12.2,50.7L12.2,50.7z M11.6,50.6c0.2-1.2-0.8-2.1-2.2-2.3c-1.2-0.2-2.5,0.2-2.7,1.5c-0.2,1.3,0.9,2.1,2.2,2.3
	C10.1,52.3,11.4,51.8,11.6,50.6L11.6,50.6z"/>
<path class="st0" d="M8.5,40.8c0.1-0.5,0.3-1,0.5-1.6c0.4-1,0.9-1.7,1.6-2c0.7-0.3,1.4-0.4,2.3,0c0.9,0.4,1.5,1,1.9,1.7
	c0.3,0.7,0.2,1.7-0.2,2.8c-0.2,0.5-0.4,0.9-0.6,1.3L8.5,40.8z M13.7,42.1c0.1-0.2,0.2-0.4,0.3-0.7c0.6-1.5,0.1-2.7-1.4-3.3
	c-1.3-0.5-2.5-0.1-3.1,1.4c-0.1,0.4-0.2,0.7-0.3,0.9L13.7,42.1z"/>
<path class="st0" d="M15.9,32.4l-1.2,2l1.9,1.1l1.3-2.3l0.6,0.3l-1.7,3l-5.2-3l1.6-2.8l0.6,0.3l-1.2,2.2l1.7,0.9l1.2-2L15.9,32.4z"
	/>
<path class="st0" d="M14.8,28.3l0.5-0.6l4.3,3.2l1.5-2.1l0.5,0.4l-2,2.7L14.8,28.3z"/>
<path class="st0" d="M27,20c-0.6-0.6-1.3-1.3-1.8-1.9l0,0c0.3,0.7,0.6,1.4,1,2.2l1.1,2.9l-0.4,0.4l-2.6-1.5
	c-0.8-0.5-1.5-0.9-2.1-1.3l0,0c0.5,0.6,1.1,1.4,1.7,2.1l1.6,2l-0.6,0.5l-3.7-4.8l0.7-0.7l2.7,1.5c0.7,0.4,1.3,0.8,1.8,1.1l0,0
	c-0.3-0.6-0.6-1.2-0.9-1.9l-1.1-2.9l0.7-0.7l4.3,4.3l-0.6,0.5L27,20z"/>
<path class="st0" d="M28.8,14.5l1.9,3c0.7,1.1,1.5,1.3,2.2,0.9c0.7-0.5,0.9-1.3,0.2-2.4l-1.9-3l0.7-0.4l1.9,3c1,1.6,0.6,2.7-0.5,3.4
	c-1,0.7-2.2,0.6-3.2-1l-1.9-3L28.8,14.5z"/>
<path class="st0" d="M37.3,16.4l-2.4-5.5l0.8-0.3l3,2c0.7,0.5,1.3,0.9,1.8,1.4l0,0c-0.4-0.7-0.7-1.4-1.1-2.2l-1-2.3L39,9.1l2.4,5.5
	l-0.7,0.3l-3-2c-0.7-0.4-1.3-0.9-1.8-1.4l0,0c0.3,0.7,0.7,1.3,1.1,2.3l1,2.4L37.3,16.4z"/>
<path class="st0" d="M42.2,8c0.4-0.2,1-0.4,1.6-0.6c1.1-0.3,1.9-0.3,2.6,0.1c0.7,0.3,1.1,0.9,1.4,1.9c0.3,0.9,0.2,1.8-0.2,2.5
	c-0.4,0.7-1.2,1.2-2.4,1.5c-0.5,0.1-1,0.3-1.4,0.3L42.2,8z M44.4,13c0.2,0,0.5-0.1,0.8-0.2c1.6-0.4,2.2-1.6,1.8-3.1
	c-0.4-1.4-1.4-2-3-1.6c-0.4,0.1-0.7,0.2-0.9,0.3L44.4,13z"/>
<path class="st0" d="M53,11.9c-1.6,0.2-2.8-0.9-3-2.7c-0.2-1.9,0.8-3.3,2.4-3.5c1.6-0.2,2.8,0.9,3,2.7C55.6,10.5,54.5,11.7,53,11.9
	L53,11.9z M52.9,11.3c1.2-0.1,1.8-1.3,1.6-2.7c-0.1-1.2-0.9-2.4-2.2-2.2c-1.3,0.1-1.8,1.4-1.6,2.7C50.9,10.3,51.7,11.4,52.9,11.3
	L52.9,11.3z"/>
<path class="st0" d="M61.6,9.5c-0.5,0-0.9-0.5-0.9-1c0-0.5,0.5-0.9,1-0.9c0.5,0,0.9,0.5,0.9,1C62.6,9.1,62.1,9.5,61.6,9.5L61.6,9.5z
	"/>
<path class="st0" d="M68.5,12.6l0.1-6.2l0.8,0.2l-0.1,3.1c0,0.8-0.1,1.5-0.1,2.1l0,0c0.2-0.6,0.6-1.2,1-1.9l1.6-2.7l0.8,0.2
	l-0.1,3.1c0,0.7,0,1.5-0.1,2.1l0,0c0.3-0.6,0.6-1.2,1-1.9L74.9,8l0.8,0.2l-3.2,5.4l-0.8-0.2l0.1-3.2c0-0.8,0.1-1.4,0.1-2l0,0
	c-0.3,0.6-0.5,1.1-1,1.8l-1.6,2.8L68.5,12.6z"/>
<path class="st0" d="M77.9,15.9c-1.5-0.7-1.9-2.3-1.2-3.9c0.8-1.7,2.4-2.4,3.9-1.7c1.5,0.7,1.9,2.3,1.2,3.9
	C80.9,16.1,79.3,16.5,77.9,15.9L77.9,15.9z M78.2,15.3c1.1,0.5,2.2-0.2,2.8-1.5c0.5-1.1,0.5-2.5-0.7-3c-1.2-0.5-2.3,0.3-2.8,1.5
	C77,13.4,77.1,14.8,78.2,15.3L78.2,15.3z"/>
<path class="st0" d="M85.6,13.1c0.4,0.1,0.9,0.4,1.3,0.7c0.7,0.5,1.1,0.9,1.2,1.4c0.1,0.4,0,0.8-0.2,1.2c-0.4,0.7-1.1,0.8-1.8,0.7
	l0,0c0.3,0.4,0.3,0.9,0.1,1.5c-0.3,0.8-0.5,1.4-0.5,1.6L85,19.8c0-0.2,0.2-0.7,0.5-1.4c0.3-0.8,0.2-1.2-0.4-1.6l-0.6-0.4L83,18.5
	l-0.7-0.4L85.6,13.1z M84.8,15.8l0.7,0.4c0.7,0.5,1.4,0.4,1.8-0.2c0.4-0.7,0.1-1.2-0.6-1.7c-0.3-0.2-0.6-0.3-0.7-0.4L84.8,15.8z"/>
<path class="st0" d="M91.1,16.8l0.6,0.5l-3.4,4.1l2,1.6l-0.4,0.5l-2.6-2.2L91.1,16.8z"/>
<path class="st0" d="M95.6,20.9c0.4,0.3,0.8,0.7,1.2,1.1c0.8,0.8,1.1,1.6,1.1,2.3c0,0.7-0.3,1.4-1,2.1c-0.7,0.7-1.5,1-2.3,1
	c-0.8,0-1.7-0.5-2.4-1.4c-0.4-0.4-0.7-0.8-0.9-1.1L95.6,20.9z M92.2,25.1c0.1,0.2,0.3,0.4,0.5,0.6c1.1,1.2,2.4,1.3,3.6,0.2
	c1.1-1,1.2-2.2,0.1-3.4c-0.3-0.3-0.5-0.5-0.7-0.6L92.2,25.1z"/>
<path class="st0" d="M98.4,32.2c0,0.4,0.1,0.9,0.4,1.4c0.4,0.7,1,0.9,1.5,0.5c0.5-0.3,0.6-0.7,0.4-1.6c-0.2-1-0.1-1.8,0.6-2.3
	c0.8-0.5,1.8-0.2,2.4,0.8c0.3,0.5,0.4,1,0.4,1.3l-0.7,0.1c0-0.2-0.1-0.7-0.3-1.1c-0.4-0.7-1-0.7-1.4-0.5c-0.5,0.3-0.5,0.8-0.4,1.6
	c0.2,1.1,0,1.8-0.7,2.2c-0.8,0.5-1.8,0.3-2.6-0.9c-0.3-0.5-0.5-1.1-0.5-1.5L98.4,32.2z"/>
<path class="st0" d="M102.3,41.3c-0.2-0.2-0.6-0.7-0.9-1.3c-0.7-1.6-0.2-3.1,1.6-4c1.7-0.8,3.4-0.1,4.2,1.6c0.3,0.7,0.4,1.2,0.3,1.4
	l-0.7,0.1c0-0.3-0.1-0.7-0.3-1.2c-0.6-1.3-1.8-1.8-3.2-1.1c-1.4,0.6-1.9,1.8-1.3,3.1c0.2,0.4,0.5,0.8,0.8,1.1L102.3,41.3z"/>
<path class="st0" d="M108.9,42.5l-2.4,0.7l0.8,2.8l2.4-0.7l0.2,0.8l-5.8,1.7l-0.2-0.8l2.7-0.8l-0.8-2.8l-2.7,0.8l-0.2-0.8l5.8-1.7
	L108.9,42.5z"/>
<path class="st0" d="M104.8,52.4c-0.2-1.6,0.9-2.8,2.7-3.1c1.9-0.2,3.3,0.8,3.5,2.4c0.2,1.6-0.9,2.9-2.7,3.1
	C106.2,55.1,105,54,104.8,52.4L104.8,52.4z M105.4,52.4c0.2,1.2,1.4,1.8,2.7,1.6c1.2-0.2,2.4-0.9,2.2-2.2c-0.2-1.3-1.4-1.8-2.7-1.6
	C106.3,50.3,105.3,51.2,105.4,52.4L105.4,52.4z"/>
<path class="st0" d="M105.1,59.7c0-1.6,1.3-2.7,3.1-2.6c1.9,0.1,3.1,1.3,3.1,2.9c0,1.7-1.3,2.7-3.1,2.6
	C106.2,62.5,105.1,61.2,105.1,59.7L105.1,59.7z M105.8,59.7c0,1.2,1.1,2,2.4,2c1.2,0,2.5-0.6,2.5-1.8c0-1.3-1.1-2-2.5-2
	C107,57.8,105.8,58.5,105.8,59.7L105.8,59.7z"/>
<path class="st0" d="M110.8,65.5l-0.1,0.8l-5.3-0.8L105,68l-0.6-0.1l0.5-3.3L110.8,65.5z"/>
<path class="st0" d="M104.5,74.7c0.2-0.5,0.7-0.8,1.2-0.6c0.5,0.2,0.8,0.7,0.6,1.2c-0.2,0.5-0.7,0.8-1.2,0.6
	C104.6,75.8,104.4,75.2,104.5,74.7L104.5,74.7z"/>
<g>
	<path class="st1" d="M102,58.2c0,24.2-19.6,43.8-43.8,43.8C34,102,14.4,82.4,14.4,58.2C14.4,34,34,14.4,58.2,14.4
		C82.4,14.4,102,34,102,58.2z"/>
	<linearGradient id="SVGID_1_" gradientUnits="userSpaceOnUse" x1="34.279" y1="24.0106" x2="82.2827" y2="92.5669">
		<stop  offset="0.309" style="stop-color:#13B5EA"/>
		<stop  offset="0.4731" style="stop-color:#008FC9"/>
		<stop  offset="0.7645" style="stop-color:#005C9C"/>
		<stop  offset="0.8989" style="stop-color:#004B8D"/>
	</linearGradient>
	<path class="st2" d="M100.2,58.2c0,23.2-18.8,41.9-41.9,41.9c-19.7,0-36.2-13.6-40.7-31.9c8.2-0.1,16-1.9,23-5.1V46.8
		c0-1.3-0.4-2.2-1.3-2.8c-0.9-0.6-2.5-0.9-4.8-0.9v-1.5c3-0.1,5.8-0.3,8.4-0.5c2.5-0.3,4.7-0.6,6.6-1.1l0,23.7c0,1.3,0,2.8,0,4.4
		c0,1.5,0,3.1-0.1,4.6c-0.1,1.5-0.1,2.9-0.2,4.2C49,78,48.8,79.1,48.7,80c2.5,1.4,5.3,2.6,8.3,3.6c3,0.9,5.9,1.4,8.5,1.4
		c2.2,0,4.4-0.3,6.5-1c2.1-0.7,4-1.7,5.6-3c1.6-1.3,2.9-2.9,3.9-4.8c1-1.9,1.5-4,1.5-6.4c0-2.2-0.4-4.2-1.1-6.1
		c-0.7-1.8-1.8-3.4-3.1-4.8c-1.3-1.3-2.9-2.4-4.8-3.2c-1.8-0.8-3.9-1.2-6.1-1.2c-1.6,0-3.3,0.3-5.1,0.9c-1.7,0.6-3.3,1.3-4.7,2.1
		v-7.1c7.6-7.9,12.9-17.9,14.9-29.1c-9.3-4-20.2-4.5-30.4-0.6c-11.4,4.3-19.7,13.2-23.7,23.7c3.8-11.4,12.5-21,24.6-25.6
		c10.1-3.8,20.6-3.5,29.9,0.1c0,0,0,0,0,0C89.1,25.2,100.2,40.4,100.2,58.2z M59.4,79.7c1.1,2,3.1,3,5.8,3c2.7,0,4.7-1,5.8-3
		c1.1-2,1.7-5.1,1.7-9.3c0-4.2-0.6-7.3-1.7-9.3c-1.1-2-3.1-2.9-5.8-2.9c-2.7,0-4.7,1-5.8,2.9c-1.1,2-1.7,5.1-1.7,9.3
		C57.7,74.6,58.3,77.7,59.4,79.7z M48.5,35.2c1.2-1.1,1.7-2.6,1.7-4.3c0-1.7-0.6-3.1-1.7-4.3c-1.2-1.1-2.6-1.7-4.2-1.7
		c-1.7,0-3.1,0.6-4.2,1.7c-1.2,1.1-1.7,2.6-1.7,4.3c0,1.7,0.6,3.1,1.7,4.3c1.2,1.1,2.6,1.7,4.2,1.7C45.9,36.9,47.3,36.3,48.5,35.2z"
		/>
</g>
<g>
	<path class="st0" d="M101,20.2c9,10.1,14.5,23.5,14.5,38.1c0,31.6-25.6,57.2-57.2,57.2c-3.6,0-7.2-0.3-10.6-1
		c4.6,1.2,9.4,1.8,14.3,1.8c0.1,0,0.2,0,0.3,0c30.3-2,54.3-27.3,54.3-58.1c0-9.5-2.3-18.6-6.4-26.5C107.6,27.5,104.5,23.6,101,20.2z
		"/>
	<path class="st0" d="M1,58.2C1,29.9,21.6,6.3,48.7,1.8c4.3-1,8.7-1.5,13.2-1.5c1.1,0,2.1,0,3.2,0.1C62.8,0.1,60.5,0,58.2,0
		C26.1,0,0,26.1,0,58.2C0,71.6,4.5,84,12.2,93.8c-3-4.5-5.4-9.4-7.2-14.6C2.4,72.8,1,65.7,1,58.2z"/>
</g>
<path class="st0" d="M116.8,18.1c0,1-0.7,1.7-1.7,1.7c-1,0-1.7-0.8-1.7-1.7c0-1,0.7-1.7,1.7-1.7C116,16.4,116.8,17.1,116.8,18.1z
	 M113.6,18.1c0,0.8,0.6,1.5,1.5,1.5c0.8,0,1.5-0.7,1.5-1.5c0-0.8-0.6-1.5-1.5-1.5C114.2,16.6,113.6,17.3,113.6,18.1z M114.7,19.1
	h-0.2v-2h0.8c0.4,0,0.6,0.2,0.6,0.6c0,0.4-0.2,0.5-0.5,0.6l0.6,0.9h-0.3l-0.6-0.9h-0.4V19.1z M115,18c0.3,0,0.6,0,0.6-0.3
	c0-0.3-0.2-0.3-0.5-0.3h-0.4V18H115z"/>
</svg>
